<svg xmlns="http://www.w3.org/2000/svg" xmlns:xlink="http://www.w3.org/1999/xlink" width="500" zoomAndPan="magnify" viewBox="0 0 375 374.999991" height="500" preserveAspectRatio="xMidYMid meet" version="1.0"><defs><g/><clipPath id="75749bfe4e"><path d="M 123.082031 61.46875 L 172 61.46875 L 172 198 L 123.082031 198 Z M 123.082031 61.46875 " clip-rule="nonzero"/></clipPath><clipPath id="1b14d4e185"><path d="M 178 87 L 227 87 L 227 223.46875 L 178 223.46875 Z M 178 87 " clip-rule="nonzero"/></clipPath><clipPath id="78b3d73e13"><path d="M 243 66 L 252.082031 66 L 252.082031 76 L 243 76 Z M 243 66 " clip-rule="nonzero"/></clipPath></defs><rect x="-37.5" width="450" fill="#ffffff" y="-37.499999" height="449.999989" fill-opacity="1"/><rect x="-37.5" width="450" fill="#ffffff" y="-37.499999" height="449.999989" fill-opacity="1"/><g clip-path="url(#75749bfe4e)"><path fill="#393536" d="M 123.125 137.714844 L 123.125 120.789062 C 126.566406 120.601562 129.160156 120.082031 130.90625 119.234375 C 132.652344 118.386719 134.160156 116.96875 135.433594 114.96875 C 136.710938 112.96875 137.582031 110.46875 138.054688 107.457031 C 138.429688 105.199219 138.621094 101.273438 138.621094 95.679688 C 138.621094 86.558594 139.042969 80.199219 139.890625 76.601562 C 140.742188 73.007812 142.273438 70.113281 144.492188 67.929688 C 146.707031 65.742188 149.9375 64.015625 154.183594 62.746094 C 157.058594 61.898438 161.585938 61.476562 167.765625 61.476562 L 171.515625 61.476562 L 171.515625 78.332031 C 166.28125 78.332031 162.921875 78.625 161.4375 79.210938 C 159.949219 79.800781 158.851562 80.691406 158.144531 81.890625 C 157.4375 83.089844 157.085938 85.148438 157.085938 88.0625 C 157.085938 91.023438 156.871094 96.644531 156.445312 104.917969 C 156.210938 109.574219 155.597656 113.347656 154.609375 116.238281 C 153.617188 119.128906 152.355469 121.515625 150.824219 123.394531 C 149.289062 125.277344 146.941406 127.230469 143.785156 129.25 C 146.566406 130.847656 148.839844 132.71875 150.609375 134.855469 C 152.378906 136.996094 153.734375 139.59375 154.679688 142.652344 C 155.621094 145.707031 156.234375 149.796875 156.515625 154.921875 C 156.847656 162.726562 157.011719 167.710938 157.011719 169.875 C 157.011719 172.976562 157.390625 175.136719 158.144531 176.359375 C 158.898438 177.582031 160.042969 178.511719 161.578125 179.148438 C 163.109375 179.78125 166.421875 180.097656 171.515625 180.097656 L 171.515625 197.023438 L 167.765625 197.023438 C 161.398438 197.023438 156.515625 196.519531 153.121094 195.507812 C 149.726562 194.496094 146.859375 192.816406 144.527344 190.464844 C 142.191406 188.113281 140.621094 185.210938 139.820312 181.753906 C 139.019531 178.300781 138.621094 172.859375 138.621094 165.429688 C 138.621094 156.78125 138.242188 151.160156 137.488281 148.574219 C 136.449219 144.8125 134.878906 142.121094 132.78125 140.5 C 130.683594 138.875 127.464844 137.949219 123.125 137.714844 " fill-opacity="1" fill-rule="nonzero"/></g><path fill="#eeb30d" d="M 230.457031 96.589844 L 219.382812 96.589844 L 219.382812 85.550781 L 230.457031 85.550781 L 230.457031 96.589844 " fill-opacity="1" fill-rule="nonzero"/><path fill="#eeb30d" d="M 227.84375 118.664062 L 219.382812 118.664062 L 219.382812 110.230469 L 227.84375 110.230469 L 227.84375 118.664062 " fill-opacity="1" fill-rule="nonzero"/><g clip-path="url(#1b14d4e185)"><path fill="#eeb30d" d="M 195.628906 105.023438 L 195.628906 96.589844 L 204.089844 96.589844 L 204.089844 105.023438 Z M 217.148438 144.453125 C 215.027344 142.832031 213.445312 140.140625 212.410156 136.378906 C 211.839844 134.257812 211.5 130.191406 211.386719 124.183594 L 204.089844 124.183594 L 204.089844 113.144531 L 211.226562 113.144531 C 211.050781 108.890625 210.675781 105.574219 210.109375 103.195312 C 209.285156 99.742188 207.714844 96.824219 205.40625 94.453125 C 203.09375 92.078125 200.242188 90.394531 196.84375 89.40625 C 193.449219 88.421875 188.570312 87.925781 182.199219 87.925781 L 178.449219 87.925781 L 178.449219 104.78125 C 183.78125 104.78125 187.210938 105.101562 188.746094 105.734375 C 190.277344 106.371094 191.335938 107.273438 191.929688 108.449219 C 192.515625 109.625 192.835938 111.976562 192.882812 115.503906 C 193.117188 126.691406 193.496094 133.933594 194.015625 137.226562 C 194.816406 142.019531 196.324219 145.96875 198.542969 149.070312 C 200.144531 151.234375 202.691406 153.445312 206.183594 155.703125 C 203.496094 157.253906 201.289062 159.050781 199.570312 161.097656 C 197.847656 163.144531 196.46875 165.636719 195.429688 168.574219 C 194.394531 171.511719 193.757812 175.425781 193.519531 180.316406 C 193.140625 188.402344 192.941406 193.878906 192.917969 196.746094 C 192.894531 199.613281 192.515625 201.648438 191.785156 202.847656 C 191.054688 204.046875 189.910156 204.964844 188.355469 205.601562 C 186.796875 206.234375 183.496094 206.550781 178.449219 206.550781 L 178.449219 223.476562 L 182.199219 223.476562 C 188.378906 223.476562 192.90625 223.054688 195.78125 222.207031 C 200.074219 220.9375 203.328125 219.210938 205.546875 217.023438 C 207.761719 214.835938 209.285156 211.933594 210.109375 208.3125 C 210.933594 204.691406 211.347656 198.324219 211.347656 189.199219 C 211.347656 183.652344 211.535156 179.75 211.914062 177.492188 C 212.433594 174.484375 213.316406 171.980469 214.566406 169.984375 C 215.816406 167.984375 217.3125 166.5625 219.058594 165.71875 C 220.804688 164.871094 223.398438 164.351562 226.84375 164.164062 L 226.84375 147.238281 C 222.5 147.003906 219.273438 146.074219 217.148438 144.453125 " fill-opacity="1" fill-rule="nonzero"/></g><g clip-path="url(#78b3d73e13)"><path fill="#eeb30d" d="M 252.046875 75.148438 L 243.585938 75.148438 L 243.585938 66.714844 L 252.046875 66.714844 L 252.046875 75.148438 " fill-opacity="1" fill-rule="nonzero"/></g><path fill="#eeb30d" d="M 209.625 85.550781 L 193.832031 85.550781 L 193.832031 69.808594 L 209.625 69.808594 L 209.625 85.550781 " fill-opacity="1" fill-rule="nonzero"/><g fill="#393536" fill-opacity="1"><g transform="translate(116.951016, 259.486097)"><g><path d="M 11.09375 -27.625 L 14.859375 -27.625 L 25.5625 0 L 19.3125 0 L 17.65625 -4.578125 L 8.296875 -4.578125 L 6.6875 0 L 0.40625 0 Z M 15.828125 -9.671875 L 13 -17.65625 L 10.125 -9.671875 Z M 15.828125 -9.671875 "/></g></g></g><g fill="#393536" fill-opacity="1"><g transform="translate(150.477125, 259.486097)"><g><path d="M 6.03125 -9.359375 L 0.203125 -18.625 L 6.40625 -18.625 L 9.640625 -13.25 L 12.796875 -18.625 L 18.71875 -18.625 L 12.953125 -9.671875 L 18.953125 0 L 12.75 0 L 9.390625 -5.703125 L 6.078125 0 L 0.203125 0 Z M 6.03125 -9.359375 "/></g></g></g><g fill="#393536" fill-opacity="1"><g transform="translate(177.201197, 259.486097)"><g><path d="M 2.3125 -18.625 L 7.734375 -18.625 L 7.734375 0 L 2.3125 0 Z M 5.015625 -21.5 C 4.128906 -21.5 3.375 -21.8125 2.75 -22.4375 C 2.132812 -23.0625 1.828125 -23.816406 1.828125 -24.703125 C 1.828125 -25.566406 2.132812 -26.304688 2.75 -26.921875 C 3.375 -27.546875 4.128906 -27.859375 5.015625 -27.859375 C 5.910156 -27.859375 6.660156 -27.546875 7.265625 -26.921875 C 7.878906 -26.304688 8.1875 -25.566406 8.1875 -24.703125 C 8.1875 -23.816406 7.878906 -23.0625 7.265625 -22.4375 C 6.660156 -21.8125 5.910156 -21.5 5.015625 -21.5 Z M 5.015625 -21.5 "/></g></g></g><g fill="#393536" fill-opacity="1"><g transform="translate(194.774921, 259.486097)"><g><path d="M 9.03125 0.5625 C 8.007812 0.5625 7.070312 0.367188 6.21875 -0.015625 C 5.363281 -0.410156 4.625 -0.953125 4 -1.640625 C 3.382812 -2.328125 2.898438 -3.132812 2.546875 -4.0625 C 2.203125 -5 2.03125 -6.007812 2.03125 -7.09375 L 2.03125 -18.625 L 7.453125 -18.625 L 7.453125 -8.421875 C 7.453125 -7.179688 7.75 -6.195312 8.34375 -5.46875 C 8.9375 -4.738281 9.742188 -4.375 10.765625 -4.375 C 11.796875 -4.375 12.613281 -4.75 13.21875 -5.5 C 13.832031 -6.257812 14.140625 -7.273438 14.140625 -8.546875 L 14.140625 -18.625 L 19.5625 -18.625 L 19.5625 0 L 14.34375 0 L 14.34375 -2.234375 C 13.664062 -1.335938 12.878906 -0.644531 11.984375 -0.15625 C 11.097656 0.320312 10.113281 0.5625 9.03125 0.5625 Z M 9.03125 0.5625 "/></g></g></g><g fill="#393536" fill-opacity="1"><g transform="translate(224.130731, 259.486097)"><g><path d="M 2.234375 -18.625 L 7.453125 -18.625 L 7.453125 -16.40625 C 8.097656 -17.289062 8.875 -17.976562 9.78125 -18.46875 C 10.6875 -18.957031 11.675781 -19.203125 12.75 -19.203125 C 14 -19.203125 15.125 -18.910156 16.125 -18.328125 C 17.125 -17.742188 17.929688 -16.953125 18.546875 -15.953125 C 19.304688 -16.984375 20.195312 -17.78125 21.21875 -18.34375 C 22.25 -18.914062 23.382812 -19.203125 24.625 -19.203125 C 25.675781 -19.203125 26.640625 -19.003906 27.515625 -18.609375 C 28.398438 -18.210938 29.164062 -17.675781 29.8125 -17 C 30.457031 -16.332031 30.960938 -15.523438 31.328125 -14.578125 C 31.691406 -13.628906 31.875 -12.617188 31.875 -11.546875 L 31.875 0 L 26.453125 0 L 26.453125 -10.203125 C 26.453125 -11.441406 26.15625 -12.425781 25.5625 -13.15625 C 24.96875 -13.882812 24.15625 -14.25 23.125 -14.25 C 22.101562 -14.25 21.285156 -13.867188 20.671875 -13.109375 C 20.066406 -12.359375 19.765625 -11.347656 19.765625 -10.078125 L 19.765625 0 L 14.34375 0 L 14.34375 -10.203125 C 14.34375 -11.441406 14.046875 -12.425781 13.453125 -13.15625 C 12.859375 -13.882812 12.046875 -14.25 11.015625 -14.25 C 9.992188 -14.25 9.175781 -13.867188 8.5625 -13.109375 C 7.957031 -12.359375 7.65625 -11.347656 7.65625 -10.078125 L 7.65625 0 L 2.234375 0 Z M 2.234375 -18.625 "/></g></g></g><g fill="#eeb30d" fill-opacity="1"><g transform="translate(98.3121, 281.944771)"><g><path d="M 2.578125 0 L 2.578125 -6.84375 L 0.3125 -6.84375 L 0.3125 -7.59375 L 5.765625 -7.59375 L 5.765625 -6.84375 L 3.484375 -6.84375 L 3.484375 0 Z M 2.578125 0 "/></g></g></g><g fill="#eeb30d" fill-opacity="1"><g transform="translate(113.059229, 281.944771)"><g><path d="M 0.796875 0 L 0.796875 -7.59375 L 5.5 -7.59375 L 5.5 -6.84375 L 1.71875 -6.84375 L 1.71875 -4.203125 L 5.171875 -4.203125 L 5.171875 -3.453125 L 1.71875 -3.453125 L 1.71875 -0.75 L 5.5 -0.75 L 5.5 0 Z M 0.796875 0 "/></g></g></g><g fill="#eeb30d" fill-opacity="1"><g transform="translate(127.849714, 281.944771)"><g><path d="M 4.125 0.125 C 3.382812 0.125 2.742188 -0.0351562 2.203125 -0.359375 C 1.671875 -0.691406 1.253906 -1.148438 0.953125 -1.734375 C 0.660156 -2.328125 0.515625 -3.015625 0.515625 -3.796875 C 0.515625 -4.566406 0.660156 -5.242188 0.953125 -5.828125 C 1.253906 -6.421875 1.671875 -6.882812 2.203125 -7.21875 C 2.742188 -7.550781 3.382812 -7.71875 4.125 -7.71875 C 5 -7.71875 5.707031 -7.507812 6.25 -7.09375 C 6.789062 -6.675781 7.140625 -6.097656 7.296875 -5.359375 L 6.296875 -5.359375 C 6.171875 -5.828125 5.929688 -6.203125 5.578125 -6.484375 C 5.222656 -6.773438 4.738281 -6.921875 4.125 -6.921875 C 3.582031 -6.921875 3.109375 -6.796875 2.703125 -6.546875 C 2.304688 -6.296875 1.992188 -5.9375 1.765625 -5.46875 C 1.546875 -5 1.4375 -4.441406 1.4375 -3.796875 C 1.4375 -3.140625 1.546875 -2.578125 1.765625 -2.109375 C 1.992188 -1.648438 2.304688 -1.296875 2.703125 -1.046875 C 3.109375 -0.796875 3.582031 -0.671875 4.125 -0.671875 C 4.738281 -0.671875 5.222656 -0.804688 5.578125 -1.078125 C 5.929688 -1.359375 6.171875 -1.734375 6.296875 -2.203125 L 7.296875 -2.203125 C 7.140625 -1.472656 6.789062 -0.898438 6.25 -0.484375 C 5.707031 -0.078125 5 0.125 4.125 0.125 Z M 4.125 0.125 "/></g></g></g><g fill="#eeb30d" fill-opacity="1"><g transform="translate(144.33107, 281.944771)"><g><path d="M 0.796875 0 L 0.796875 -7.59375 L 1.71875 -7.59375 L 1.71875 -4.234375 L 5.65625 -4.234375 L 5.65625 -7.59375 L 6.5625 -7.59375 L 6.5625 0 L 5.65625 0 L 5.65625 -3.484375 L 1.71875 -3.484375 L 1.71875 0 Z M 0.796875 0 "/></g></g></g><g fill="#eeb30d" fill-opacity="1"><g transform="translate(160.368031, 281.944771)"><g/></g></g><g fill="#eeb30d" fill-opacity="1"><g transform="translate(171.91767, 281.944771)"><g><path d="M 4.125 0.125 C 3.382812 0.125 2.742188 -0.0351562 2.203125 -0.359375 C 1.671875 -0.691406 1.253906 -1.148438 0.953125 -1.734375 C 0.660156 -2.328125 0.515625 -3.015625 0.515625 -3.796875 C 0.515625 -4.566406 0.660156 -5.242188 0.953125 -5.828125 C 1.253906 -6.421875 1.671875 -6.882812 2.203125 -7.21875 C 2.742188 -7.550781 3.382812 -7.71875 4.125 -7.71875 C 5 -7.71875 5.707031 -7.507812 6.25 -7.09375 C 6.789062 -6.675781 7.140625 -6.097656 7.296875 -5.359375 L 6.296875 -5.359375 C 6.171875 -5.828125 5.929688 -6.203125 5.578125 -6.484375 C 5.222656 -6.773438 4.738281 -6.921875 4.125 -6.921875 C 3.582031 -6.921875 3.109375 -6.796875 2.703125 -6.546875 C 2.304688 -6.296875 1.992188 -5.9375 1.765625 -5.46875 C 1.546875 -5 1.4375 -4.441406 1.4375 -3.796875 C 1.4375 -3.140625 1.546875 -2.578125 1.765625 -2.109375 C 1.992188 -1.648438 2.304688 -1.296875 2.703125 -1.046875 C 3.109375 -0.796875 3.582031 -0.671875 4.125 -0.671875 C 4.738281 -0.671875 5.222656 -0.804688 5.578125 -1.078125 C 5.929688 -1.359375 6.171875 -1.734375 6.296875 -2.203125 L 7.296875 -2.203125 C 7.140625 -1.472656 6.789062 -0.898438 6.25 -0.484375 C 5.707031 -0.078125 5 0.125 4.125 0.125 Z M 4.125 0.125 "/></g></g></g><g fill="#eeb30d" fill-opacity="1"><g transform="translate(188.399026, 281.944771)"><g><path d="M 4.25 0.125 C 3.507812 0.125 2.859375 -0.0351562 2.296875 -0.359375 C 1.734375 -0.691406 1.296875 -1.15625 0.984375 -1.75 C 0.671875 -2.34375 0.515625 -3.023438 0.515625 -3.796875 C 0.515625 -4.566406 0.671875 -5.242188 0.984375 -5.828125 C 1.296875 -6.421875 1.734375 -6.882812 2.296875 -7.21875 C 2.859375 -7.550781 3.507812 -7.71875 4.25 -7.71875 C 5 -7.71875 5.65625 -7.550781 6.21875 -7.21875 C 6.78125 -6.882812 7.210938 -6.421875 7.515625 -5.828125 C 7.828125 -5.242188 7.984375 -4.566406 7.984375 -3.796875 C 7.984375 -3.023438 7.828125 -2.34375 7.515625 -1.75 C 7.210938 -1.15625 6.78125 -0.691406 6.21875 -0.359375 C 5.65625 -0.0351562 5 0.125 4.25 0.125 Z M 4.25 -0.671875 C 4.800781 -0.671875 5.289062 -0.796875 5.71875 -1.046875 C 6.144531 -1.296875 6.472656 -1.648438 6.703125 -2.109375 C 6.941406 -2.578125 7.0625 -3.140625 7.0625 -3.796875 C 7.0625 -4.441406 6.941406 -4.992188 6.703125 -5.453125 C 6.472656 -5.921875 6.144531 -6.28125 5.71875 -6.53125 C 5.289062 -6.78125 4.800781 -6.90625 4.25 -6.90625 C 3.695312 -6.90625 3.207031 -6.78125 2.78125 -6.53125 C 2.351562 -6.28125 2.019531 -5.921875 1.78125 -5.453125 C 1.550781 -4.992188 1.4375 -4.441406 1.4375 -3.796875 C 1.4375 -3.140625 1.550781 -2.578125 1.78125 -2.109375 C 2.019531 -1.648438 2.351562 -1.296875 2.78125 -1.046875 C 3.207031 -0.796875 3.695312 -0.671875 4.25 -0.671875 Z M 4.25 -0.671875 "/></g></g></g><g fill="#eeb30d" fill-opacity="1"><g transform="translate(205.574081, 281.944771)"><g><path d="M 0.796875 0 L 0.796875 -7.59375 L 1.859375 -7.59375 L 4.59375 -2.296875 L 7.3125 -7.59375 L 8.375 -7.59375 L 8.375 0 L 7.46875 0 L 7.46875 -5.96875 L 4.9375 -1.078125 L 4.25 -1.078125 L 1.71875 -5.953125 L 1.71875 0 Z M 0.796875 0 "/></g></g></g><g fill="#eeb30d" fill-opacity="1"><g transform="translate(223.431984, 281.944771)"><g><path d="M 0.796875 0 L 0.796875 -7.59375 L 3.296875 -7.59375 C 3.890625 -7.59375 4.375 -7.492188 4.75 -7.296875 C 5.132812 -7.097656 5.421875 -6.832031 5.609375 -6.5 C 5.796875 -6.164062 5.890625 -5.789062 5.890625 -5.375 C 5.890625 -4.96875 5.796875 -4.597656 5.609375 -4.265625 C 5.429688 -3.929688 5.148438 -3.664062 4.765625 -3.46875 C 4.390625 -3.269531 3.898438 -3.171875 3.296875 -3.171875 L 1.71875 -3.171875 L 1.71875 0 Z M 1.71875 -3.9375 L 3.28125 -3.9375 C 3.882812 -3.9375 4.3125 -4.0625 4.5625 -4.3125 C 4.820312 -4.570312 4.953125 -4.925781 4.953125 -5.375 C 4.953125 -5.832031 4.820312 -6.1875 4.5625 -6.4375 C 4.3125 -6.695312 3.882812 -6.828125 3.28125 -6.828125 L 1.71875 -6.828125 Z M 1.71875 -3.9375 "/></g></g></g><g fill="#eeb30d" fill-opacity="1"><g transform="translate(238.38505, 281.944771)"><g><path d="M 0.328125 0 L 3.125 -7.59375 L 4.09375 -7.59375 L 6.875 0 L 5.90625 0 L 5.21875 -1.953125 L 1.984375 -1.953125 L 1.28125 0 Z M 2.25 -2.6875 L 4.9375 -2.6875 L 3.59375 -6.4375 Z M 2.25 -2.6875 "/></g></g></g><g fill="#eeb30d" fill-opacity="1"><g transform="translate(254.259429, 281.944771)"><g><path d="M 0.796875 0 L 0.796875 -7.59375 L 1.71875 -7.59375 L 5.765625 -1.5 L 5.765625 -7.59375 L 6.671875 -7.59375 L 6.671875 0 L 5.765625 0 L 1.71875 -6.078125 L 1.71875 0 Z M 0.796875 0 "/></g></g></g><g fill="#eeb30d" fill-opacity="1"><g transform="translate(270.404772, 281.944771)"><g><path d="M 2.6875 0 L 2.6875 -2.890625 L 0.21875 -7.59375 L 1.25 -7.59375 L 3.140625 -3.75 L 5.046875 -7.59375 L 6.0625 -7.59375 L 3.59375 -2.890625 L 3.59375 0 Z M 2.6875 0 "/></g></g></g></svg>