<svg xmlns="http://www.w3.org/2000/svg" xmlns:xlink="http://www.w3.org/1999/xlink" width="500" zoomAndPan="magnify" viewBox="0 0 375 374.999991" height="500" preserveAspectRatio="xMidYMid meet" version="1.0"><defs><clipPath id="c5b5bba95f"><path d="M 101 66.207031 L 312.835938 66.207031 L 312.835938 207 L 101 207 Z M 101 66.207031 " clip-rule="nonzero"/></clipPath><clipPath id="88c7e64ade"><path d="M 62.335938 116 L 274 116 L 274 308.457031 L 62.335938 308.457031 Z M 62.335938 116 " clip-rule="nonzero"/></clipPath></defs><g clip-path="url(#c5b5bba95f)"><path fill="#eeeeee" d="M 312.347656 118.488281 L 312.347656 159.746094 C 312.347656 180.574219 300.175781 198.554688 282.554688 206.960938 L 282.554688 169.074219 C 282.554688 135.496094 255.230469 108.167969 221.644531 108.167969 L 114.941406 108.167969 C 110.441406 108.167969 106.054688 108.660156 101.828125 109.59375 C 106.046875 84.957031 127.511719 66.207031 153.355469 66.207031 L 260.058594 66.207031 C 288.933594 66.207031 312.347656 89.609375 312.347656 118.488281 Z M 312.347656 118.488281 " fill-opacity="1" fill-rule="nonzero"/></g><g clip-path="url(#88c7e64ade)"><path fill="#76abae" d="M 221.644531 116.789062 L 114.933594 116.789062 C 86.0625 116.789062 62.648438 140.203125 62.648438 169.074219 L 62.648438 210.332031 C 62.648438 239.207031 86.0625 262.613281 114.933594 262.613281 L 119.554688 262.613281 L 119.554688 308.773438 L 126.171875 302.15625 C 151.492188 276.835938 185.835938 262.613281 221.636719 262.613281 C 250.515625 262.613281 273.917969 239.199219 273.917969 210.332031 L 273.917969 169.074219 C 273.925781 140.203125 250.523438 116.789062 221.644531 116.789062 Z M 221.644531 116.789062 " fill-opacity="1" fill-rule="nonzero"/></g></svg>