<svg xmlns="http://www.w3.org/2000/svg" xmlns:xlink="http://www.w3.org/1999/xlink" width="500" zoomAndPan="magnify" viewBox="0 0 375 374.999991" height="500" preserveAspectRatio="xMidYMid meet" version="1.0"><defs><clipPath id="4e46350058"><path d="M 48 154.292969 L 105.75 154.292969 L 105.75 193 L 48 193 Z M 48 154.292969 " clip-rule="nonzero"/></clipPath><clipPath id="5dcf25a90d"><path d="M 37.5 168 L 96 168 L 96 221 L 37.5 221 Z M 37.5 168 " clip-rule="nonzero"/></clipPath></defs><g clip-path="url(#4e46350058)"><path fill="#eeeeee" d="M 105.941406 168.605469 L 105.941406 179.902344 C 105.941406 185.605469 102.605469 190.527344 97.785156 192.828125 L 97.785156 182.457031 C 97.785156 173.261719 90.300781 165.78125 81.109375 165.78125 L 51.894531 165.78125 C 50.664062 165.78125 49.460938 165.917969 48.304688 166.171875 C 49.460938 159.425781 55.335938 154.292969 62.410156 154.292969 L 91.625 154.292969 C 99.53125 154.292969 105.941406 160.703125 105.941406 168.605469 Z M 105.941406 168.605469 " fill-opacity="1" fill-rule="nonzero"/></g><g clip-path="url(#5dcf25a90d)"><path fill="#76abae" d="M 81.109375 168.140625 L 51.894531 168.140625 C 43.988281 168.140625 37.578125 174.550781 37.578125 182.457031 L 37.578125 193.75 C 37.578125 201.65625 43.988281 208.0625 51.894531 208.0625 L 53.160156 208.0625 L 53.160156 220.703125 L 54.972656 218.890625 C 61.902344 211.957031 71.304688 208.0625 81.105469 208.0625 C 89.011719 208.0625 95.417969 201.652344 95.417969 193.75 L 95.417969 182.457031 C 95.421875 174.550781 89.011719 168.140625 81.109375 168.140625 Z M 81.109375 168.140625 " fill-opacity="1" fill-rule="nonzero"/></g></svg>